<svg xmlns="http://www.w3.org/2000/svg" viewBox="0 0 512 512">
  <rect width="512" height="512" rx="112" fill="#eef2ff"/>
  <path d="M256 62 422 124v126c0 100-64 169-166 204C154 419 90 350 90 250V124L256 62Z" fill="#312e81"/>
  <path d="M256 131c-45-28-91-29-126-12v213c35-16 81-14 126 14 45-28 91-30 126-14V119c-35-17-81-16-126 12Z" fill="#fffdf8"/>
  <path d="M256 131v215M162 172h62M162 215h62M288 172h62M288 215h62" fill="none" stroke="#c7d2fe" stroke-width="18" stroke-linecap="round"/>
  <circle cx="374" cy="352" r="62" fill="#f97316"/>
  <path d="m344 352 20 20 40-43" fill="none" stroke="white" stroke-width="18" stroke-linecap="round" stroke-linejoin="round"/>
</svg>
